# xmcd
#
# Track frame offsets: 
#        150
#        11124
#        21248
#        30161
#        39547
#        54849
#        65389
#        78873
#        91685
#        102225
#        115916
#        131153
#        142704
#        157540
#        170382
#        179982
#        189331
#        202065
#        214215
#        229827
#
# Disc length: 3222 seconds
#
# Revision: 0
# Processed by: cddbd v1.5.1PL2 Copyright (c) Steve Scherf et al.
# Submitted via: ExactAudioCopy v0.95a5
#
DISCID=000c9414
DTITLE=Roger Whittaker - 60 Wereld Successen [CD2)
DYEAR=2003
DGENRE=Folk
TTITLE0=The Elephant And The Mouse
TTITLE1=Those Were The Days
TTITLE2=Where's Jack
TTITLE3=Finnish Whistler
TTITLE4=From Both Sides Now
TTITLE5=Steel Men
TTITLE6=I Dreamed A Dream
TTITLE7=San Diego Wine
TTITLE8=Good Morning Starshine
TTITLE9=A Special Kind Of Man
TTITLE10=Scarborough Fair Canticle
TTITLE11=By The Time I Get To Phoenix
TTITLE12=You've Lost That Loving Feeling
TTITLE13=A Taste Of Honey
TTITLE14=Sing Hallelujah
TTITLE15=Impossible Dream
TTITLE16=This Moment
TTITLE17=From The People To The People
TTITLE18=The Book
TTITLE19=San Miguel
EXTD=
EXTT0=
EXTT1=
EXTT2=
EXTT3=
EXTT4=
EXTT5=
EXTT6=
EXTT7=
EXTT8=
EXTT9=
EXTT10=
EXTT11=
EXTT12=
EXTT13=
EXTT14=
EXTT15=
EXTT16=
EXTT17=
EXTT18=
EXTT19=
PLAYORDER=
